<?xml version="1.0" encoding="utf-8"?>
<!-- Generator: Adobe Illustrator 16.0.0, SVG Export Plug-In . SVG Version: 6.00 Build 0)  -->
<!DOCTYPE svg PUBLIC "-//W3C//DTD SVG 1.1//EN" "http://www.w3.org/Graphics/SVG/1.1/DTD/svg11.dtd">
<svg version="1.1" id="Capa_1" xmlns="http://www.w3.org/2000/svg" xmlns:xlink="http://www.w3.org/1999/xlink" x="0px" y="0px"
	 width="140.811px" height="90.5px" viewBox="0 0 140.811 90.5" enable-background="new 0 0 140.811 90.5" xml:space="preserve">
<g>
	<defs>
		<rect id="SVGID_1_" x="-796" y="362.5" width="1920" height="1080"/>
	</defs>
	<clipPath id="SVGID_2_">
		<use xlink:href="#SVGID_1_"  overflow="visible"/>
	</clipPath>
	<g clip-path="url(#SVGID_2_)">
		<defs>
			<rect id="SVGID_3_" x="-796.016" y="362.491" width="1920.031" height="1080.018"/>
		</defs>
		<clipPath id="SVGID_4_">
			<use xlink:href="#SVGID_3_"  overflow="visible"/>
		</clipPath>
		<g transform="matrix(1 0 0 1 -7.107374e-006 7.981624e-006)" clip-path="url(#SVGID_4_)">
			
				<image overflow="visible" width="1920" height="1080" xlink:href="3FB94DF.jpg"  transform="matrix(1 0 0 1 -796.0156 362.4912)">
			</image>
		</g>
	</g>
</g>
<g opacity="0.5">
	<g>
		<defs>
			<rect id="SVGID_5_" x="2006.514" y="891.214" width="538" height="629"/>
		</defs>
		<clipPath id="SVGID_6_">
			<use xlink:href="#SVGID_5_"  overflow="visible"/>
		</clipPath>
		<g clip-path="url(#SVGID_6_)">
			<defs>
				<rect id="SVGID_7_" x="2006.514" y="891.214" width="538" height="629"/>
			</defs>
			<clipPath id="SVGID_8_">
				<use xlink:href="#SVGID_7_"  overflow="visible"/>
			</clipPath>
			<g clip-path="url(#SVGID_8_)">
				<image overflow="visible" width="538" height="629" xlink:href="3FB94DD.png"  transform="matrix(1 0 0 1 2006.5137 891.2139)">
				</image>
			</g>
		</g>
	</g>
</g>
<path fill="#17244C" d="M2497.592,1501.747h-444.156c-15.74,0-28.5-12.76-28.5-28.5V938.184c0-15.741,12.76-28.5,28.5-28.5h444.156
	c15.74,0,28.5,12.759,28.5,28.5v535.063C2526.092,1488.987,2513.332,1501.747,2497.592,1501.747"/>
<g>
	<defs>
		<path id="SVGID_9_" d="M2081.888,1143.775c-10.771,0-19.5,8.73-19.5,19.5s8.729,19.5,19.5,19.5h74.303
			c10.771,0,19.5-8.73,19.5-19.5s-8.729-19.5-19.5-19.5H2081.888z"/>
	</defs>
	<clipPath id="SVGID_10_">
		<use xlink:href="#SVGID_9_"  overflow="visible"/>
	</clipPath>
	
		<linearGradient id="SVGID_11_" gradientUnits="userSpaceOnUse" x1="-777.3638" y1="1439.4219" x2="-776.3638" y2="1439.4219" gradientTransform="matrix(113.303 0 0 -113.303 90140.0547 164254.1406)">
		<stop  offset="0" style="stop-color:#3A79C5"/>
		<stop  offset="1" style="stop-color:#48CCA8"/>
	</linearGradient>
	<rect x="2062.388" y="1143.775" clip-path="url(#SVGID_10_)" fill="url(#SVGID_11_)" width="113.303" height="39"/>
</g>
<text transform="matrix(1 0 0 1 2094.1875 1167.3662)" fill="#FFFFFF" font-family="'Roboto-Medium'" font-size="14">SIGN IN</text>
<path fill="#69BF49" d="M2479.418,1448.355h-399.03c-10.77,0-19.5-8.73-19.5-19.5c0-10.771,8.73-19.5,19.5-19.5h399.03
	c10.77,0,19.5,8.729,19.5,19.5C2498.918,1439.625,2490.188,1448.355,2479.418,1448.355"/>
<text transform="matrix(1 0 0 1 2251.0273 1432.9463)"><tspan x="0" y="0" fill="#FFFFFF" font-family="'Roboto-Medium'" font-size="14">L</tspan><tspan x="7.295" y="0" fill="#FFFFFF" font-family="'Roboto-Medium'" font-size="14">OGIN IN</tspan></text>
<g>
	<defs>
		<path id="SVGID_12_" d="M2387.615,1163.275c0-9.649,7.851-17.5,17.499-17.5h74.304c9.649,0,17.5,7.851,17.5,17.5
			s-7.851,17.5-17.5,17.5h-74.304C2395.466,1180.775,2387.615,1172.925,2387.615,1163.275 M2405.114,1143.775
			c-10.769,0-19.499,8.73-19.499,19.5s8.73,19.5,19.499,19.5h74.304c10.77,0,19.501-8.73,19.501-19.5s-8.731-19.5-19.501-19.5
			H2405.114z"/>
	</defs>
	<clipPath id="SVGID_13_">
		<use xlink:href="#SVGID_12_"  overflow="visible"/>
	</clipPath>
	
		<linearGradient id="SVGID_14_" gradientUnits="userSpaceOnUse" x1="-777.3643" y1="1439.4219" x2="-776.3643" y2="1439.4219" gradientTransform="matrix(113.3027 0 0 -113.3027 90463.1016 164253.7813)">
		<stop  offset="0" style="stop-color:#3A79C5"/>
		<stop  offset="1" style="stop-color:#48CCA8"/>
	</linearGradient>
	<rect x="2385.615" y="1143.775" clip-path="url(#SVGID_13_)" fill="url(#SVGID_14_)" width="113.304" height="39"/>
</g>
<text transform="matrix(1 0 0 1 2415.1953 1167.3662)" fill="#FFFFFF" font-family="'Roboto-Regular'" font-size="14">SIGN UP</text>
<path fill="#121F3F" d="M2526.092,1103.773h-501.156V938.183c0-15.74,12.76-28.5,28.5-28.5h444.156c15.74,0,28.5,12.76,28.5,28.5
	V1103.773z"/>
<text transform="matrix(1 0 0 1 2139.1484 1065.041)"><tspan x="0" y="0" fill="#B3B3B3" font-family="'MyriadPro-Regular'" font-size="24">Si</tspan><tspan x="17.447" y="0" fill="#B3B3B3" font-family="'MyriadPro-Regular'" font-size="24">g</tspan><tspan x="30.743" y="0" fill="#B3B3B3" font-family="'MyriadPro-Regular'" font-size="24">n in </tspan><tspan x="73.174" y="0" fill="#B3B3B3" font-family="'MyriadPro-Regular'" font-size="24">t</tspan><tspan x="80.998" y="0" fill="#B3B3B3" font-family="'MyriadPro-Regular'" font-size="24">o sta</tspan><tspan x="128.277" y="0" fill="#B3B3B3" font-family="'MyriadPro-Regular'" font-size="24">r</tspan><tspan x="136.677" y="0" fill="#B3B3B3" font-family="'MyriadPro-Regular'" font-size="24">t </tspan><tspan x="149.709" y="0" fill="#B3B3B3" font-family="'MyriadPro-Regular'" font-size="24">y</tspan><tspan x="160.797" y="0" fill="#B3B3B3" font-family="'MyriadPro-Regular'" font-size="24">our session</tspan></text>
<text transform="matrix(1 0 0 1 2204.0977 1481.748)"><tspan x="0" y="0" fill="#0F95D8" font-family="'MyriadPro-Regular'" font-size="16">FO</tspan><tspan x="18.816" y="0" fill="#0F95D8" font-family="'MyriadPro-Regular'" font-size="16">R</tspan><tspan x="27.457" y="0" fill="#0F95D8" font-family="'MyriadPro-Regular'" font-size="16">G</tspan><tspan x="37.793" y="0" fill="#0F95D8" font-family="'MyriadPro-Regular'" font-size="16">O</tspan><tspan x="48.432" y="0" fill="#0F95D8" font-family="'MyriadPro-Regular'" font-size="16">T </tspan><tspan x="59.775" y="0" fill="#0F95D8" font-family="'MyriadPro-Regular'" font-size="16" letter-spacing="-1">P</tspan><tspan x="66.96" y="0" fill="#0F95D8" font-family="'MyriadPro-Regular'" font-size="16">ASSWORD?</tspan></text>
<text transform="matrix(1 0 0 1 2218.7363 1539.3633)" fill="#F2F2F2" font-family="'Roboto-Light'" font-size="18">...or login with:</text>
<path fill="#4862A3" d="M2194.075,1611.247h-112.497c-1.656,0-3-1.344-3-3v-39.692c0-1.657,1.344-3,3-3h112.497c1.657,0,3,1.343,3,3
	v39.692C2197.075,1609.903,2195.732,1611.247,2194.075,1611.247"/>
<polygon fill="#FFFFFF" points="2121.049,1589.297 2116.665,1589.297 2116.665,1593.895 2115.26,1593.895 2115.26,1583.5 
	2121.777,1583.5 2121.777,1584.605 2116.665,1584.605 2116.665,1588.189 2121.049,1588.189 "/>
<path fill="#FFFFFF" d="M2127.639,1593.895c-0.047-0.233-0.084-0.439-0.11-0.617c-0.026-0.179-0.042-0.358-0.046-0.54
	c-0.262,0.372-0.604,0.682-1.025,0.932c-0.421,0.25-0.875,0.375-1.359,0.375c-0.805,0-1.418-0.206-1.838-0.617
	c-0.422-0.411-0.633-0.979-0.633-1.702c0-0.738,0.299-1.315,0.896-1.732c0.597-0.416,1.406-0.624,2.431-0.624h1.528v-0.764
	c0-0.453-0.139-0.812-0.415-1.075c-0.275-0.264-0.666-0.396-1.17-0.396c-0.457,0-0.826,0.113-1.107,0.343
	c-0.28,0.228-0.421,0.502-0.421,0.821l-1.335,0.014l-0.015-0.043c-0.033-0.562,0.229-1.075,0.789-1.542s1.281-0.7,2.166-0.7
	c0.877,0,1.582,0.223,2.113,0.668c0.533,0.445,0.801,1.086,0.801,1.924v3.72c0,0.275,0.014,0.542,0.043,0.8
	c0.027,0.257,0.08,0.51,0.156,0.757H2127.639z M2125.305,1592.866c0.51,0,0.968-0.131,1.377-0.393
	c0.41-0.262,0.676-0.562,0.801-0.899v-1.257h-1.578c-0.566,0-1.02,0.143-1.359,0.429c-0.341,0.285-0.512,0.621-0.512,1.006
	c0,0.344,0.107,0.614,0.321,0.814C2124.569,1592.767,2124.885,1592.866,2125.305,1592.866"/>
<path fill="#FFFFFF" d="M2134,1592.945c0.434,0,0.811-0.145,1.135-0.433s0.486-0.642,0.486-1.06h1.27l0.022,0.043
	c0.019,0.666-0.267,1.257-0.856,1.773c-0.591,0.518-1.275,0.774-2.057,0.774c-1.085,0-1.923-0.368-2.513-1.106
	c-0.591-0.737-0.886-1.655-0.886-2.756v-0.3c0-1.089,0.297-2.005,0.89-2.745c0.592-0.74,1.428-1.109,2.509-1.109
	c0.861,0,1.566,0.267,2.117,0.8c0.55,0.531,0.814,1.187,0.796,1.963l-0.015,0.043h-1.277c0-0.472-0.154-0.872-0.461-1.203
	s-0.693-0.496-1.16-0.496c-0.689,0-1.193,0.268-1.51,0.803c-0.317,0.535-0.475,1.185-0.475,1.945v0.3
	c0,0.776,0.155,1.432,0.467,1.963C2132.794,1592.678,2133.3,1592.945,2134,1592.945"/>
<path fill="#FFFFFF" d="M2141.781,1594.044c-1.108,0-1.974-0.354-2.595-1.063c-0.62-0.709-0.932-1.643-0.932-2.798v-0.315
	c0-1.108,0.321-2.025,0.961-2.752c0.64-0.725,1.421-1.089,2.345-1.089c1.033,0,1.807,0.322,2.324,0.964
	c0.518,0.644,0.775,1.497,0.775,2.563v0.742h-4.941l-0.021,0.035c0,0.776,0.172,1.406,0.515,1.89
	c0.342,0.482,0.866,0.724,1.569,0.724c0.477,0,0.895-0.067,1.254-0.203s0.668-0.322,0.925-0.56l0.55,0.913
	c-0.275,0.267-0.641,0.491-1.093,0.675C2142.965,1593.952,2142.42,1594.044,2141.781,1594.044 M2141.561,1587.134
	c-0.49,0-0.896,0.188-1.217,0.567c-0.322,0.378-0.518,0.863-0.589,1.452l0.014,0.036h3.484v-0.114c0-0.561-0.138-1.024-0.414-1.392
	S2142.137,1587.134,2141.561,1587.134"/>
<path fill="#FFFFFF" d="M2152.834,1590.325c0,1.113-0.268,2.012-0.804,2.694c-0.535,0.684-1.271,1.025-2.209,1.025
	c-0.515,0-0.961-0.102-1.339-0.304s-0.691-0.501-0.939-0.896l-0.228,1.05h-1.078v-11.138h1.406v4.327
	c0.243-0.343,0.544-0.605,0.903-0.786s0.778-0.271,1.26-0.271c0.953,0,1.695,0.382,2.228,1.143c0.533,0.762,0.8,1.764,0.8,3.006
	V1590.325z M2151.428,1590.175c0-0.885-0.164-1.607-0.489-2.167c-0.326-0.559-0.822-0.839-1.489-0.839
	c-0.432,0-0.798,0.106-1.095,0.317c-0.298,0.213-0.535,0.496-0.711,0.854v3.349c0.181,0.381,0.418,0.679,0.711,0.893
	c0.292,0.214,0.663,0.32,1.11,0.32c0.66,0,1.153-0.234,1.478-0.707c0.324-0.471,0.485-1.095,0.485-1.869V1590.175z"/>
<path fill="#FFFFFF" d="M2154.219,1589.961c0-1.143,0.31-2.084,0.929-2.824c0.618-0.74,1.459-1.11,2.521-1.11
	c1.07,0,1.916,0.369,2.537,1.107s0.932,1.68,0.932,2.827v0.156c0,1.152-0.31,2.096-0.928,2.827
	c-0.619,0.733-1.461,1.101-2.527,1.101s-1.91-0.368-2.531-1.104s-0.932-1.677-0.932-2.824V1589.961z M2155.625,1590.117
	c0,0.818,0.172,1.495,0.519,2.028c0.345,0.532,0.856,0.799,1.538,0.799c0.671,0,1.181-0.267,1.527-0.799
	c0.348-0.533,0.521-1.21,0.521-2.028v-0.156c0-0.81-0.176-1.482-0.525-2.021c-0.349-0.538-0.863-0.806-1.537-0.806
	c-0.672,0-1.18,0.268-1.524,0.806c-0.347,0.539-0.519,1.212-0.519,2.021V1590.117z"/>
<path fill="#FFFFFF" d="M2162.529,1589.961c0-1.143,0.309-2.084,0.928-2.824s1.459-1.11,2.521-1.11c1.071,0,1.917,0.369,2.538,1.107
	s0.932,1.68,0.932,2.827v0.156c0,1.152-0.31,2.096-0.929,2.827c-0.618,0.733-1.46,1.101-2.526,1.101s-1.91-0.368-2.531-1.104
	s-0.932-1.677-0.932-2.824V1589.961z M2163.936,1590.117c0,0.818,0.172,1.495,0.518,2.028c0.346,0.532,0.857,0.799,1.539,0.799
	c0.67,0,1.18-0.267,1.527-0.799c0.348-0.533,0.521-1.21,0.521-2.028v-0.156c0-0.81-0.176-1.482-0.525-2.021
	c-0.35-0.538-0.863-0.806-1.538-0.806c-0.671,0-1.179,0.268-1.524,0.806c-0.346,0.539-0.518,1.212-0.518,2.021V1590.117z"/>
<polygon fill="#FFFFFF" points="2173.303,1590.332 2172.582,1590.332 2172.582,1593.895 2171.174,1593.895 2171.174,1582.757 
	2172.582,1582.757 2172.582,1589.211 2173.289,1589.211 2175.608,1586.17 2177.293,1586.17 2174.487,1589.731 2177.537,1593.895 
	2175.873,1593.895 "/>
<path fill="#FFFFFF" d="M2106.002,1588.384h-2.438v8.928h-3.691v-8.928h-1.756v-3.138h1.756v-2.03c0-1.451,0.689-3.725,3.726-3.725
	l2.733,0.011v3.046h-1.983c-0.326,0-0.784,0.163-0.784,0.855v1.847h2.76L2106.002,1588.384z"/>
<path fill="#55ACEE" d="M2316.456,1611.247h-102.673c-1.657,0-3-1.344-3-3v-39.692c0-1.657,1.343-3,3-3h102.673c1.657,0,3,1.343,3,3
	v39.692C2319.456,1609.903,2318.113,1611.247,2316.456,1611.247"/>
<text transform="matrix(1 0 0 1 2254.8662 1593.7988)"><tspan x="0" y="0" fill="#FFFFFF" font-family="'Roboto-Regular'" font-size="14.6215">T</tspan><tspan x="8.403" y="0" fill="#FFFFFF" font-family="'Roboto-Regular'" font-size="14.6215">witter</tspan></text>
<path fill="#F1F2F2" d="M2247.256,1584.598c-0.647,0.287-1.344,0.481-2.074,0.568c0.746-0.447,1.317-1.154,1.588-1.997
	c-0.697,0.413-1.471,0.714-2.293,0.876c-0.657-0.702-1.596-1.141-2.635-1.141c-1.994,0-3.609,1.617-3.609,3.61
	c0,0.282,0.031,0.56,0.093,0.823c-3-0.151-5.661-1.588-7.44-3.773c-0.312,0.534-0.488,1.154-0.488,1.815
	c0,1.253,0.637,2.359,1.604,3.005c-0.591-0.018-1.146-0.181-1.635-0.452v0.046c0,1.748,1.245,3.208,2.896,3.539
	c-0.303,0.083-0.621,0.128-0.951,0.128c-0.232,0-0.459-0.022-0.68-0.064c0.461,1.434,1.793,2.478,3.373,2.507
	c-1.234,0.969-2.791,1.545-4.484,1.545c-0.291,0-0.578-0.016-0.86-0.05c1.597,1.023,3.494,1.622,5.533,1.622
	c6.64,0,10.272-5.502,10.272-10.272c0-0.157-0.004-0.312-0.011-0.467C2246.16,1585.957,2246.771,1585.32,2247.256,1584.598"/>
<path fill="#DD4B39" d="M2469.449,1611.247h-133.285c-1.657,0-3-1.344-3-3v-39.692c0-1.657,1.343-3,3-3h133.285c1.656,0,3,1.343,3,3
	v39.692C2472.449,1609.903,2471.105,1611.247,2469.449,1611.247"/>
<text transform="matrix(1 0 0 1 2377.1074 1593.7988)" fill="#FFFFFF" font-family="'Roboto-Regular'" font-size="14.6215">Google Plus</text>
<path fill="#FFFFFF" d="M2349.769,1588.409c-0.14-3.687,3.089-7.093,6.779-7.137c1.881-0.16,3.709,0.571,5.134,1.761
	c-0.584,0.643-1.178,1.277-1.813,1.87c-1.254-0.76-2.762-1.341-4.227-0.825c-2.362,0.671-3.793,3.46-2.918,5.771
	c0.723,2.414,3.659,3.738,5.96,2.724c1.19-0.426,1.975-1.524,2.321-2.706c-1.366-0.026-2.731-0.011-4.097-0.049
	c-0.004-0.811-0.007-1.62-0.004-2.432c2.277-0.005,4.559-0.012,6.838,0.009c0.14,1.99-0.153,4.12-1.448,5.718
	c-1.771,2.28-5.045,2.949-7.707,2.054C2351.763,1594.239,2349.707,1591.394,2349.769,1588.409"/>
<path fill="#FFFFFF" d="M2368.18,1585.337h2.031c0.003,0.681,0.009,1.363,0.014,2.042c0.68,0.006,1.361,0.01,2.041,0.013v2.035
	c-0.68,0.003-1.361,0.006-2.041,0.01c-0.008,0.684-0.011,1.362-0.014,2.044c-0.679-0.003-1.358,0-2.034,0
	c-0.007-0.682-0.007-1.36-0.014-2.041c-0.679-0.007-1.362-0.01-2.041-0.013v-2.035c0.679-0.004,1.358-0.007,2.041-0.013
	C2368.166,1586.7,2368.173,1586.018,2368.18,1585.337"/>
<text transform="matrix(1 0 0 1 2092.8877 1386.6973)"><tspan x="0" y="0" fill="#0F95D8" font-family="'Roboto-Regular'" font-size="16">I ag</tspan><tspan x="25.992" y="0" fill="#0F95D8" font-family="'Roboto-Regular'" font-size="16">r</tspan><tspan x="31.263" y="0" fill="#0F95D8" font-family="'Roboto-Regular'" font-size="16">ee with terms and se</tspan><tspan x="178.677" y="0" fill="#0F95D8" font-family="'Roboto-Regular'" font-size="16">r</tspan><tspan x="184.17" y="0" fill="#0F95D8" font-family="'Roboto-Regular'" font-size="16">vices</tspan></text>
<path fill="#0F95D8" d="M2080.388,1380.355c0,4.971-4.029,9-9,9c-4.972,0-9-4.029-9-9c0-4.972,4.028-9,9-9
	C2076.358,1371.355,2080.388,1375.384,2080.388,1380.355"/>
<path fill="#17244C" d="M2341.714,992.283c0.5-17.9-17-39.301-17.8-40.2c-5.5-6.7-13.301-6.399-14.5-6.399h-15
	c-1.5-9.101-9.5-16-18.9-16s-17.3,6.899-18.8,16h-15.101c-1.1-0.101-9-0.301-14.5,6.399c-0.8,0.899-18.3,22.3-17.8,40.101v1.299
	c0,2.601,0.3,5.101,0.9,7.4c2.399,7.9,10.6,13.301,20.1,13.301h0.5c9.5-0.201,21.101-5.9,25.9-21.5h1.2c2.5,0,4.5-2,4.6-4.5
	l0.3-2.801h0.7l1.9,4.9c0.5,1.4,1.899,2.3,3.399,2.3h4.601c1.399,0,2.6-1.101,2.8-2.5l0.1-0.8l0.2,0.6c0.5,1.4,1.8,2.4,3.3,2.4h4.4
	c1.6,0,2.899-1.1,3.2-2.6l0.1-0.701c0.4,2.201,2.4,3.9,4.7,3.801h2c4.8,15.5,16.399,21.3,25.899,21.4h0.5
	c9.5,0,17.801-5.5,20.101-13.4c0.7-2.301,1-4.7,0.899-7.2C2341.714,993.083,2341.714,992.583,2341.714,992.283"/>
<path fill="#231F1C" d="M2321.714,956.383c-5-6-12.2-5.4-12.2-5.4h-68c0,0-7.3-0.6-12.2,5.4c-4.899,6-21,28.1-16.399,43.6
	c4.6,15.5,34.6,17.9,41.699-10.1h3.301c1,0,1.899-0.8,1.899-1.9l0.4-4.699c0-0.4,0.399-0.7,0.8-0.7h3.8c0.4,0,0.7,0.2,0.9,0.601
	l2,5.199c0.3,0.801,1.1,1.301,2,1.301h2.6c0.7,0,1.2-0.5,1.3-1.201l1.2-11.299c0-0.201,0.3-0.201,0.3,0l3.801,10.899
	c0.3,0.8,1.1,1.399,1.899,1.399h2.4c0.899,0,1.6-0.6,1.8-1.399l2.8-14.101c0-0.199,0.3-0.199,0.3,0l2.2,14.4
	c0.101,0.9,0.9,1.7,1.9,1.6l4.2-0.1c7.1,27.9,37.1,25.6,41.699,10.1C2342.714,984.482,2326.714,962.383,2321.714,956.383
	 M2260.414,976.383l1.1-7.699l2.6,7.699H2260.414z M2291.914,956.783h-5.9l-4.7,20.4l-6.6-20.4h-2.3l-3.301,17.8l-6.399-17.8h-3.5
	l-3.101,15.199l1.5-17.1h35.9l1.5,17.1L2291.914,956.783z"/>
<path fill="#7C7D7D" d="M2321.714,955.383c-5-6-12.2-5.4-12.2-5.4h-68c0,0-7.3-0.6-12.2,5.4c-4.899,6-21,28-16.399,43.6
	c4.6,15.601,34.6,17.9,41.699-10.1h3.301c1,0,1.899-0.8,1.899-1.9l0.4-4.699c0-0.4,0.399-0.7,0.8-0.7h3.8c0.4,0,0.7,0.2,0.9,0.601
	l2,5.199c0.3,0.801,1.1,1.301,2,1.301h2.6c0.7,0,1.2-0.5,1.3-1.201l1.2-11.299c0-0.201,0.3-0.201,0.3,0l3.801,10.899
	c0.3,0.8,1.1,1.399,1.899,1.399h2.4c0.899,0,1.6-0.6,1.8-1.399l2.8-14.101c0-0.199,0.3-0.199,0.3,0l2.2,14.4
	c0.101,0.9,0.9,1.7,1.9,1.6l4.2-0.1c7.1,27.9,37.1,25.6,41.699,10.1C2342.714,983.383,2326.714,961.383,2321.714,955.383
	 M2260.414,975.383l1.1-7.699l2.6,7.699H2260.414z M2291.914,955.783h-5.9l-4.7,20.4l-6.6-20.4h-2.3l-3.301,17.8l-6.399-17.8h-3.5
	l-3.101,15.199l1.5-17.1h35.9l1.5,17.1L2291.914,955.783z"/>
<path fill="#F7F7F7" d="M2321.714,953.883c-5-6-12.2-5.4-12.2-5.4h-68c0,0-7.3-0.6-12.2,5.4c-4.899,6-21,28-16.399,43.6
	c4.6,15.601,34.6,17.9,41.699-10.1h3.301c1,0,1.899-0.8,1.899-1.9l0.4-4.699c0-0.4,0.399-0.7,0.8-0.7h3.8c0.4,0,0.7,0.2,0.9,0.601
	l2,5.199c0.3,0.801,1.1,1.301,2,1.301h2.6c0.7,0,1.2-0.5,1.3-1.201l1.2-11.299c0-0.201,0.3-0.201,0.3,0l3.801,10.899
	c0.3,0.8,1.1,1.399,1.899,1.399h2.4c0.899,0,1.6-0.6,1.8-1.399l2.8-14.101c0-0.199,0.3-0.199,0.3,0l2.2,14.301
	c0.101,0.9,0.9,1.699,1.9,1.6l4.2-0.1c7.1,27.9,37.1,25.6,41.699,10.1C2342.714,981.883,2326.714,959.883,2321.714,953.883
	 M2260.414,973.883l1.1-7.699l2.6,7.699H2260.414z M2291.914,954.184h-5.9l-4.7,20.399l-6.6-20.399h-2.3l-3.301,17.799
	l-6.399-17.799h-3.5l-3.101,15.199l1.5-17.1h35.9l1.5,17.1L2291.914,954.184z"/>
<path fill="#17244C" d="M2246.514,965.583c-0.4-0.399-0.9-0.7-1.5-0.7h-3.3l0.399-4.3c0-0.601-0.1-1.101-0.5-1.5
	c-0.399-0.399-0.899-0.7-1.5-0.7h-2.8c-1.1,0-1.899,0.801-2,1.9l-0.399,4.699h-3.801c-1,0-1.899,0.801-2,1.801l-0.3,2.699
	c-0.1,0.601,0.101,1.201,0.5,1.601c0.4,0.399,0.9,0.7,1.5,0.7h3.5l-0.399,4.199c0,0.601,0.1,1.101,0.5,1.5
	c0.399,0.4,0.899,0.701,1.5,0.701h2.8c1.1,0,1.899-0.801,2-1.9l0.399-4.5h3.601c1,0,1.899-0.801,2-1.801l0.3-2.699
	C2247.014,966.583,2246.813,965.982,2246.514,965.583"/>
<path fill="#17244C" d="M2313.113,966.083c1.9-0.601,3-2.899,2.301-5.101c-0.301-1-1-1.899-1.801-2.5
	c-0.899-0.6-1.899-0.699-2.899-0.399c-1.9,0.601-3,2.899-2.3,5.101c0.3,1,1,1.899,1.8,2.5c0.6,0.399,1.2,0.6,1.899,0.6
	C2312.514,966.184,2312.813,966.184,2313.113,966.083"/>
<path fill="#17244C" d="M2315.714,971.783L2315.714,971.783c-0.9-0.6-1.9-0.7-2.9-0.4c-1.899,0.6-3,2.9-2.3,5.1c0.3,1,1,1.9,1.8,2.5
	c0.601,0.4,1.2,0.601,1.9,0.601c0.3,0,0.7-0.101,1-0.2c1.899-0.6,3-2.9,2.3-5.1C2317.214,973.184,2316.613,972.283,2315.714,971.783
	"/>
<path fill="#17244C" d="M2322.113,966.883c-0.3-1-1-1.9-1.8-2.5c-0.899-0.6-1.899-0.699-2.899-0.4c-1.9,0.601-3,2.9-2.301,5.101
	c0.301,1,1,1.899,1.801,2.5c0.6,0.399,1.199,0.601,1.899,0.601c0.3,0,0.7-0.101,1-0.201
	C2321.813,971.383,2322.813,969.083,2322.113,966.883"/>
<path fill="#17244C" d="M2308.313,964.883c-0.8-0.6-1.7-0.9-2.6-0.699c-1,0.1-1.9,0.699-2.5,1.6c-0.601,0.9-0.8,1.9-0.7,3
	c0.2,2.1,1.9,3.699,3.8,3.699h0.4c2-0.299,3.5-2.299,3.2-4.6C2309.813,966.583,2309.214,965.583,2308.313,964.883"/>
<path fill="#162249" d="M2220.714,970.684c-0.2,3.399-0.2,6.799,0.3,10.199c0.3,1.6,0.7,3.301,1.4,4.7c0.699,1.5,1.699,2.8,3,3.601
	c1.3,0.799,2.899,1.199,4.5,1.199c1.6,0,3.1-0.5,4.5-1.3c1.399-0.899,2.6-2,3.6-3.399c1-1.301,1.9-2.801,2.7-4.301
	c-0.4,1.7-1.2,3.301-2.101,4.801c-0.899,1.5-2.1,2.899-3.6,3.899c-1.5,1.101-3.3,1.7-5.1,1.8c-0.9,0-1.801-0.1-2.7-0.3
	c-0.9-0.2-1.8-0.601-2.601-1.101c-1.6-1-2.699-2.6-3.399-4.299c-0.7-1.701-1.101-3.4-1.2-5.201c-0.2-1.699-0.1-3.5,0-5.199
	C2220.014,974.083,2220.313,972.383,2220.714,970.684"/>
<path d="M2220.414,973.083c0,1.5,0,3,0.1,4.5s0.4,3,0.8,4.399c0.8,2.801,2.5,5.301,5.101,6.4c0.6,0.301,1.3,0.5,2,0.6
	c0.699,0.101,1.399,0.201,2.1,0.101c1.4,0,2.8-0.5,4-1.101c1.3-0.699,2.4-1.699,3.4-2.799c1-1.101,1.8-2.4,2.5-3.701
	c-0.4,1.5-1.101,2.9-2,4.201c-0.9,1.299-2,2.5-3.301,3.299c-1.3,0.9-2.899,1.4-4.6,1.601c-0.8,0.101-1.6,0-2.4-0.101
	c-0.8-0.1-1.6-0.299-2.399-0.6c-1.5-0.6-2.9-1.699-3.8-3.1c-0.9-1.301-1.5-2.9-1.9-4.4c-0.3-1.5-0.4-3.1-0.4-4.6
	C2219.914,976.083,2220.014,974.482,2220.414,973.083"/>
<path fill="#7C7D7D" d="M2220.813,970.383c-0.1,3.1,0,6.1,0.601,9.1c0.3,1.4,0.8,2.9,1.5,4.101c0.699,1.2,1.699,2.3,2.899,3
	c0.601,0.3,1.2,0.601,1.9,0.8c0.7,0.2,1.399,0.301,2.1,0.301c1.4,0.1,2.9-0.101,4.2-0.601c2.7-1,5-3.2,6.6-5.8
	c-0.5,1.5-1.3,2.8-2.3,4c-1,1.199-2.3,2.199-3.8,2.9c-1.5,0.699-3.1,1-4.8,1c-0.8,0-1.601-0.101-2.4-0.301
	c-0.8-0.199-1.6-0.5-2.3-0.9c-1.5-0.799-2.6-2.199-3.4-3.6c-0.8-1.5-1.199-3-1.399-4.6s-0.3-3.1-0.2-4.7
	C2220.214,973.482,2220.414,971.883,2220.813,970.383"/>
<path fill="#162249" d="M2328.113,970.684c0.2,3.399,0.2,6.799-0.3,10.199c-0.3,1.6-0.7,3.301-1.399,4.7c-0.7,1.5-1.7,2.8-3,3.601
	c-1.301,0.799-2.9,1.199-4.5,1.199c-1.601,0-3.101-0.5-4.5-1.3c-1.4-0.899-2.601-2-3.601-3.399c-1-1.301-1.899-2.801-2.7-4.301
	c0.4,1.7,1.2,3.301,2.101,4.801c0.899,1.5,2.1,2.899,3.6,3.899c1.5,1.101,3.3,1.7,5.101,1.8c0.899,0,1.8-0.1,2.699-0.3
	c0.9-0.2,1.801-0.601,2.601-1.101c1.6-1,2.7-2.6,3.399-4.299c0.7-1.701,1.101-3.4,1.2-5.201c0.2-1.699,0.101-3.5,0-5.199
	C2328.813,974.083,2328.514,972.383,2328.113,970.684"/>
<path d="M2328.414,973.083c0,1.5,0,3-0.101,4.5c-0.1,1.5-0.399,3-0.8,4.399c-0.8,2.801-2.5,5.301-5.1,6.4
	c-0.601,0.301-1.301,0.5-2,0.6c-0.7,0.101-1.4,0.201-2.101,0.101c-1.399,0-2.8-0.5-4-1.101c-1.3-0.699-2.399-1.699-3.399-2.799
	c-1-1.101-1.801-2.4-2.5-3.701c0.399,1.5,1.1,2.9,2,4.201c0.899,1.299,2,2.5,3.3,3.299c1.3,0.9,2.899,1.4,4.6,1.601
	c0.8,0.101,1.601,0,2.4-0.101c0.8-0.1,1.6-0.299,2.399-0.6c1.5-0.6,2.9-1.699,3.801-3.1c0.899-1.301,1.5-2.9,1.899-4.4
	c0.3-1.5,0.4-3.1,0.4-4.6C2328.914,976.083,2328.714,974.482,2328.414,973.083"/>
<path fill="#7C7D7D" d="M2328.014,970.383c0.1,3.1,0,6.1-0.6,9.1c-0.301,1.4-0.801,2.9-1.5,4.101c-0.7,1.2-1.7,2.3-2.9,3
	c-0.6,0.3-1.2,0.601-1.9,0.8c-0.699,0.2-1.399,0.301-2.1,0.301c-1.4,0.1-2.9-0.101-4.2-0.601c-2.7-1-5-3.2-6.6-5.8
	c0.5,1.5,1.3,2.8,2.3,4c1,1.199,2.3,2.199,3.8,2.9c1.5,0.699,3.101,1,4.8,1c0.801,0,1.601-0.101,2.4-0.301
	c0.8-0.199,1.6-0.5,2.3-0.9c1.5-0.799,2.601-2.199,3.4-3.6c0.8-1.5,1.2-3,1.399-4.6c0.2-1.6,0.301-3.1,0.2-4.7
	C2328.613,973.482,2328.414,971.883,2328.014,970.383"/>
<path fill="#17244C" d="M2275.514,931.684c9.72,0,17.6,7.879,17.6,17.6c0,9.72-7.88,17.6-17.6,17.6c-9.721,0-17.6-7.88-17.6-17.6
	C2257.914,939.563,2265.793,931.684,2275.514,931.684"/>
<path fill="#985B25" d="M2275.514,931.982c9.002,0,16.3,7.299,16.3,16.301s-7.298,16.3-16.3,16.3s-16.3-7.298-16.3-16.3
	S2266.512,931.982,2275.514,931.982"/>
<path fill="#F79521" d="M2275.514,933.283c7.953,0,14.4,6.447,14.4,14.4c0,7.952-6.447,14.399-14.4,14.399s-14.4-6.447-14.4-14.399
	C2261.113,939.73,2267.561,933.283,2275.514,933.283"/>
<path fill="#ED2826" d="M2310.987,959.021c1.424-0.443,2.99,0.523,3.499,2.156c0.509,1.636-0.233,3.32-1.656,3.764
	c-1.424,0.443-2.991-0.523-3.5-2.158C2308.822,961.149,2309.563,959.465,2310.987,959.021"/>
<path fill="#25BEC5" d="M2313.091,972.025c1.424-0.443,2.989,0.523,3.499,2.157c0.509,1.636-0.233,3.32-1.656,3.763
	c-1.424,0.443-2.991-0.522-3.5-2.158C2310.926,974.154,2311.666,972.469,2313.091,972.025"/>
<path fill="#FBAA19" d="M2317.688,964.82c1.424-0.442,2.99,0.523,3.499,2.157c0.509,1.636-0.233,3.32-1.656,3.763
	c-1.424,0.443-2.991-0.522-3.5-2.158C2315.523,966.949,2316.265,965.264,2317.688,964.82"/>
<path fill="#72BF44" d="M2305.841,965.006c1.48-0.18,2.848,1.055,3.053,2.754c0.204,1.699-0.829,3.223-2.311,3.4
	c-1.479,0.18-2.847-1.054-3.052-2.754C2303.327,966.707,2304.361,965.184,2305.841,965.006"/>
<path fill="#F3787A" d="M2310.613,959.883c1.4-0.4,3,0.5,3.5,2.1c0.2,0.701,0.2,1.4,0,2c0.601-0.699,0.7-1.799,0.4-2.799
	c-0.5-1.601-2.1-2.601-3.5-2.101c-0.8,0.2-1.4,0.899-1.6,1.7C2309.714,960.383,2310.113,960.083,2310.613,959.883"/>
<path fill="#96D7DF" d="M2316.613,974.184c-0.5-1.601-2.1-2.601-3.5-2.101c-0.899,0.3-1.5,1.101-1.699,2
	c0.3-0.5,0.8-0.899,1.399-1.101c1.4-0.399,3,0.5,3.5,2.101c0.2,0.601,0.2,1.101,0.101,1.7
	C2316.714,975.982,2316.813,975.083,2316.613,974.184"/>
<path fill="#FCD18B" d="M2317.514,965.783c1.4-0.4,3,0.5,3.5,2.1c0.1,0.4,0.2,0.801,0.2,1.1c0.2-0.6,0.2-1.299,0-2
	c-0.5-1.6-2.101-2.6-3.5-2.1c-1.101,0.301-1.8,1.4-1.8,2.6C2316.214,966.684,2316.714,965.982,2317.514,965.783"/>
<path fill="#B4D88B" d="M2308.914,967.684c-0.2-1.701-1.601-2.9-3-2.701c-1.5,0.201-2.5,1.701-2.301,3.4
	c0.2-1.3,1.101-2.4,2.301-2.5c1.5-0.199,2.8,1,3,2.7V967.684z"/>
<path fill="#0A6CAA" d="M2244.613,965.482h-4.399l0.5-5.399c0.1-0.601-0.4-1.101-1-1.101h-2.8c-0.5,0-1,0.4-1,0.9l-0.5,5.6h-4.7
	c-0.5,0-0.9,0.4-1,0.9l-0.4,2.7c-0.1,0.601,0.4,1.101,1,1.101h4.7l-0.5,5.299c-0.1,0.601,0.4,1.101,1,1.101h2.8
	c0.5,0,1-0.399,1-0.899l0.5-5.5h4.5c0.5,0,0.9-0.4,1-0.9l0.3-2.7C2245.714,965.982,2245.214,965.482,2244.613,965.482"/>
<path fill="#48AEE0" d="M2235.914,965.283L2235.914,965.283c-0.2,0-0.301-0.1-0.301-0.301l0.4-4.899c0-0.5,0.5-0.899,1.1-0.899
	h2.101c0.2,0,0.3,0.1,0.3,0.299c0,0.201-0.1,0.201-0.3,0.201h-2.101c-0.3,0-0.5,0.199-0.5,0.5l-0.399,4.899
	C2236.214,965.184,2236.113,965.283,2235.914,965.283"/>
<path fill="#48AEE0" d="M2244.613,966.383h-4.3c-0.1,0-0.3-0.1-0.3-0.3c0-0.101,0.1-0.3,0.3-0.3h4.3c0.101,0,0.301,0.1,0.301,0.3
	C2244.813,966.283,2244.714,966.383,2244.613,966.383"/>
<path fill="#48AEE0" d="M2234.714,966.383h-4.4c-0.1,0-0.3-0.1-0.3-0.3c0-0.101,0.1-0.3,0.3-0.3h4.3c0.101,0,0.301,0.1,0.301,0.3
	S2234.813,966.383,2234.714,966.383"/>
<path fill="#FFFFFF" d="M2280.914,949.184c-0.101,0-0.101-0.101,0.1-0.201c1,0.101,3-0.1,3.9-2.399c0.8-2-0.2-4.3-2.2-5.101
	l-0.7-0.299l1.3-3l-1.899-0.801l-1.301,3.2l-2.199-0.899l1.3-3.201l-1.9-0.799l-1.3,3.199l-4.8-1.9l-0.9,2.301l1.8,0.699
	c0.301,0.101,0.4,0.4,0.301,0.701l-4,9.899c-0.101,0.3-0.4,0.399-0.7,0.3l-1.8-0.699l-0.9,2.299l4.8,1.9l-1.2,3l1.9,0.801l1.2-3
	l2.2,0.899l-1.2,3l1.899,0.8l1.2-3l1.2,0.5c2.3,0.9,4.8-0.199,5.8-2.5C2283.813,952.684,2282.813,950.283,2280.914,949.184
	 M2279.113,942.684c1.101,0.399,1.5,1.6,1.101,2.6v0.1c-0.4,1.1-1.601,1.5-2.601,1.1l-2-0.799l1.5-3.801L2279.113,942.684z
	 M2277.914,952.283c-0.5,1.199-2,1.9-3.2,1.4l-2-0.801l2-5l2,0.801c1.2,0.5,1.899,2,1.399,3.199L2277.914,952.283z"/>
<path fill="#17244C" d="M136.605,66.185c0.5-17.9-17-39.301-17.8-40.2c-5.5-6.7-13.301-6.399-14.5-6.399h-15
	c-1.5-9.101-9.5-16-18.9-16s-17.3,6.899-18.8,16H36.505c-1.1-0.101-9-0.301-14.5,6.399c-0.8,0.899-18.3,22.3-17.8,40.101v1.299
	c0,2.601,0.3,5.101,0.9,7.4c2.399,7.9,10.6,13.301,20.1,13.301h0.5c9.5-0.201,21.101-5.9,25.9-21.5h1.2c2.5,0,4.5-2,4.6-4.5
	l0.3-2.801h0.7l1.9,4.9c0.5,1.4,1.899,2.3,3.399,2.3h4.601c1.399,0,2.6-1.101,2.8-2.5l0.1-0.8l0.2,0.6c0.5,1.4,1.8,2.4,3.3,2.4h4.4
	c1.6,0,2.899-1.1,3.2-2.6l0.1-0.701c0.4,2.201,2.4,3.9,4.7,3.801h2c4.8,15.5,16.399,21.3,25.899,21.4h0.5
	c9.5,0,17.801-5.5,20.101-13.4c0.7-2.301,1-4.7,0.899-7.2C136.605,66.984,136.605,66.484,136.605,66.185"/>
<path fill="#231F1C" d="M116.605,30.284c-5-6-12.2-5.4-12.2-5.4h-68c0,0-7.3-0.6-12.2,5.4c-4.899,6-21,28.1-16.399,43.6
	c4.6,15.5,34.6,17.9,41.699-10.1h3.301c1,0,1.899-0.8,1.899-1.9l0.4-4.699c0-0.4,0.399-0.7,0.8-0.7h3.8c0.4,0,0.7,0.2,0.9,0.601
	l2,5.199c0.3,0.801,1.1,1.301,2,1.301h2.6c0.7,0,1.2-0.5,1.3-1.201l1.2-11.299c0-0.201,0.3-0.201,0.3,0l3.801,10.899
	c0.3,0.8,1.1,1.399,1.899,1.399h2.4c0.899,0,1.6-0.6,1.8-1.399l2.8-14.101c0-0.199,0.3-0.199,0.3,0l2.2,14.4
	c0.101,0.9,0.9,1.7,1.9,1.6l4.2-0.1c7.1,27.9,37.1,25.6,41.699,10.1C137.605,58.384,121.605,36.284,116.605,30.284 M55.306,50.284
	l1.1-7.699l2.6,7.699H55.306z M86.806,30.685h-5.9l-4.7,20.4l-6.6-20.4h-2.3l-3.301,17.8l-6.399-17.8h-3.5l-3.101,15.199l1.5-17.1
	h35.9l1.5,17.1L86.806,30.685z"/>
<path fill="#7C7D7D" d="M116.605,29.284c-5-6-12.2-5.4-12.2-5.4h-68c0,0-7.3-0.6-12.2,5.4c-4.899,6-21,28-16.399,43.6
	c4.6,15.601,34.6,17.9,41.699-10.1h3.301c1,0,1.899-0.8,1.899-1.9l0.4-4.699c0-0.4,0.399-0.7,0.8-0.7h3.8c0.4,0,0.7,0.2,0.9,0.601
	l2,5.199c0.3,0.801,1.1,1.301,2,1.301h2.6c0.7,0,1.2-0.5,1.3-1.201l1.2-11.299c0-0.201,0.3-0.201,0.3,0l3.801,10.899
	c0.3,0.8,1.1,1.399,1.899,1.399h2.4c0.899,0,1.6-0.6,1.8-1.399l2.8-14.101c0-0.199,0.3-0.199,0.3,0l2.2,14.4
	c0.101,0.9,0.9,1.7,1.9,1.6l4.2-0.1c7.1,27.9,37.1,25.6,41.699,10.1C137.605,57.284,121.605,35.284,116.605,29.284 M55.306,49.284
	l1.1-7.699l2.6,7.699H55.306z M86.806,29.685h-5.9l-4.7,20.4l-6.6-20.4h-2.3l-3.301,17.8l-6.399-17.8h-3.5l-3.101,15.199l1.5-17.1
	h35.9l1.5,17.1L86.806,29.685z"/>
<path fill="#F7F7F7" d="M116.605,27.784c-5-6-12.2-5.4-12.2-5.4h-68c0,0-7.3-0.6-12.2,5.4c-4.899,6-21,28-16.399,43.6
	c4.6,15.601,34.6,17.9,41.699-10.1h3.301c1,0,1.899-0.8,1.899-1.9l0.4-4.699c0-0.4,0.399-0.7,0.8-0.7h3.8c0.4,0,0.7,0.2,0.9,0.601
	l2,5.199c0.3,0.801,1.1,1.301,2,1.301h2.6c0.7,0,1.2-0.5,1.3-1.201l1.2-11.299c0-0.201,0.3-0.201,0.3,0l3.801,10.899
	c0.3,0.8,1.1,1.399,1.899,1.399h2.4c0.899,0,1.6-0.6,1.8-1.399l2.8-14.101c0-0.199,0.3-0.199,0.3,0l2.2,14.301
	c0.101,0.9,0.9,1.699,1.9,1.6l4.2-0.1c7.1,27.9,37.1,25.6,41.699,10.1C137.605,55.784,121.605,33.784,116.605,27.784 M55.306,47.784
	l1.1-7.699l2.6,7.699H55.306z M86.806,28.085h-5.9l-4.7,20.399l-6.6-20.399h-2.3l-3.301,17.799l-6.399-17.799h-3.5l-3.101,15.199
	l1.5-17.1h35.9l1.5,17.1L86.806,28.085z"/>
<path fill="#17244C" d="M41.405,39.484c-0.4-0.399-0.9-0.7-1.5-0.7h-3.3l0.399-4.3c0-0.601-0.1-1.101-0.5-1.5
	c-0.399-0.399-0.899-0.7-1.5-0.7h-2.8c-1.1,0-1.899,0.801-2,1.9l-0.399,4.699h-3.801c-1,0-1.899,0.801-2,1.801l-0.3,2.699
	c-0.1,0.601,0.101,1.201,0.5,1.601c0.4,0.399,0.9,0.7,1.5,0.7h3.5l-0.399,4.199c0,0.601,0.1,1.101,0.5,1.5
	c0.399,0.4,0.899,0.701,1.5,0.701h2.8c1.1,0,1.899-0.801,2-1.9l0.399-4.5h3.601c1,0,1.899-0.801,2-1.801l0.3-2.699
	C41.905,40.484,41.705,39.884,41.405,39.484"/>
<path fill="#17244C" d="M108.005,39.984c1.9-0.601,3-2.899,2.301-5.101c-0.301-1-1-1.899-1.801-2.5
	c-0.899-0.6-1.899-0.699-2.899-0.399c-1.9,0.601-3,2.899-2.3,5.101c0.3,1,1,1.899,1.8,2.5c0.6,0.399,1.2,0.6,1.899,0.6
	C107.405,40.085,107.705,40.085,108.005,39.984"/>
<path fill="#17244C" d="M110.605,45.685L110.605,45.685c-0.9-0.6-1.9-0.7-2.9-0.4c-1.899,0.6-3,2.9-2.3,5.1c0.3,1,1,1.9,1.8,2.5
	c0.601,0.4,1.2,0.601,1.9,0.601c0.3,0,0.7-0.101,1-0.2c1.899-0.6,3-2.9,2.3-5.1C112.105,47.085,111.505,46.185,110.605,45.685"/>
<path fill="#17244C" d="M117.005,40.784c-0.3-1-1-1.9-1.8-2.5c-0.899-0.6-1.899-0.699-2.899-0.4c-1.9,0.601-3,2.9-2.301,5.101
	c0.301,1,1,1.899,1.801,2.5c0.6,0.399,1.199,0.601,1.899,0.601c0.3,0,0.7-0.101,1-0.201
	C116.705,45.284,117.705,42.984,117.005,40.784"/>
<path fill="#17244C" d="M103.205,38.784c-0.8-0.6-1.7-0.9-2.6-0.699c-1,0.1-1.9,0.699-2.5,1.6c-0.601,0.9-0.8,1.9-0.7,3
	c0.2,2.1,1.9,3.699,3.8,3.699h0.4c2-0.299,3.5-2.299,3.2-4.6C104.705,40.484,104.105,39.484,103.205,38.784"/>
<path fill="#162249" d="M15.605,44.585c-0.2,3.399-0.2,6.799,0.3,10.199c0.3,1.6,0.7,3.301,1.4,4.7c0.699,1.5,1.699,2.8,3,3.601
	c1.3,0.799,2.899,1.199,4.5,1.199c1.6,0,3.1-0.5,4.5-1.3c1.399-0.899,2.6-2,3.6-3.399c1-1.301,1.9-2.801,2.7-4.301
	c-0.4,1.7-1.2,3.301-2.101,4.801c-0.899,1.5-2.1,2.899-3.6,3.899c-1.5,1.101-3.3,1.7-5.1,1.8c-0.9,0-1.801-0.1-2.7-0.3
	c-0.9-0.2-1.8-0.601-2.601-1.101c-1.6-1-2.699-2.6-3.399-4.299c-0.7-1.701-1.101-3.4-1.2-5.201c-0.2-1.699-0.1-3.5,0-5.199
	C14.905,47.984,15.205,46.284,15.605,44.585"/>
<path d="M15.306,46.984c0,1.5,0,3,0.1,4.5s0.4,3,0.8,4.399c0.8,2.801,2.5,5.301,5.101,6.4c0.6,0.301,1.3,0.5,2,0.6
	c0.699,0.101,1.399,0.201,2.1,0.101c1.4,0,2.8-0.5,4-1.101c1.3-0.699,2.4-1.699,3.4-2.799c1-1.101,1.8-2.4,2.5-3.701
	c-0.4,1.5-1.101,2.9-2,4.201c-0.9,1.299-2,2.5-3.301,3.299c-1.3,0.9-2.899,1.4-4.6,1.601c-0.8,0.101-1.6,0-2.4-0.101
	c-0.8-0.1-1.6-0.299-2.399-0.6c-1.5-0.6-2.9-1.699-3.8-3.1c-0.9-1.301-1.5-2.9-1.9-4.4c-0.3-1.5-0.4-3.1-0.4-4.6
	C14.806,49.984,14.905,48.384,15.306,46.984"/>
<path fill="#7C7D7D" d="M15.705,44.284c-0.1,3.1,0,6.1,0.601,9.1c0.3,1.4,0.8,2.9,1.5,4.101c0.699,1.2,1.699,2.3,2.899,3
	c0.601,0.3,1.2,0.601,1.9,0.8c0.7,0.2,1.399,0.301,2.1,0.301c1.4,0.1,2.9-0.101,4.2-0.601c2.7-1,5-3.2,6.6-5.8
	c-0.5,1.5-1.3,2.8-2.3,4c-1,1.199-2.3,2.199-3.8,2.9c-1.5,0.699-3.1,1-4.8,1c-0.8,0-1.601-0.101-2.4-0.301
	c-0.8-0.199-1.6-0.5-2.3-0.9c-1.5-0.799-2.6-2.199-3.4-3.6c-0.8-1.5-1.199-3-1.399-4.6s-0.3-3.1-0.2-4.7
	C15.105,47.384,15.306,45.784,15.705,44.284"/>
<path fill="#162249" d="M123.005,44.585c0.2,3.399,0.2,6.799-0.3,10.199c-0.3,1.6-0.7,3.301-1.399,4.7c-0.7,1.5-1.7,2.8-3,3.601
	c-1.301,0.799-2.9,1.199-4.5,1.199c-1.601,0-3.101-0.5-4.5-1.3c-1.4-0.899-2.601-2-3.601-3.399c-1-1.301-1.899-2.801-2.7-4.301
	c0.4,1.7,1.2,3.301,2.101,4.801c0.899,1.5,2.1,2.899,3.6,3.899c1.5,1.101,3.3,1.7,5.101,1.8c0.899,0,1.8-0.1,2.699-0.3
	c0.9-0.2,1.801-0.601,2.601-1.101c1.6-1,2.7-2.6,3.399-4.299c0.7-1.701,1.101-3.4,1.2-5.201c0.2-1.699,0.101-3.5,0-5.199
	C123.705,47.984,123.405,46.284,123.005,44.585"/>
<path d="M123.306,46.984c0,1.5,0,3-0.101,4.5c-0.1,1.5-0.399,3-0.8,4.399c-0.8,2.801-2.5,5.301-5.1,6.4
	c-0.601,0.301-1.301,0.5-2,0.6c-0.7,0.101-1.4,0.201-2.101,0.101c-1.399,0-2.8-0.5-4-1.101c-1.3-0.699-2.399-1.699-3.399-2.799
	c-1-1.101-1.801-2.4-2.5-3.701c0.399,1.5,1.1,2.9,2,4.201c0.899,1.299,2,2.5,3.3,3.299c1.3,0.9,2.899,1.4,4.6,1.601
	c0.8,0.101,1.601,0,2.4-0.101c0.8-0.1,1.6-0.299,2.399-0.6c1.5-0.6,2.9-1.699,3.801-3.1c0.899-1.301,1.5-2.9,1.899-4.4
	c0.3-1.5,0.4-3.1,0.4-4.6C123.806,49.984,123.605,48.384,123.306,46.984"/>
<path fill="#7C7D7D" d="M122.905,44.284c0.1,3.1,0,6.1-0.6,9.1c-0.301,1.4-0.801,2.9-1.5,4.101c-0.7,1.2-1.7,2.3-2.9,3
	c-0.6,0.3-1.2,0.601-1.9,0.8c-0.699,0.2-1.399,0.301-2.1,0.301c-1.4,0.1-2.9-0.101-4.2-0.601c-2.7-1-5-3.2-6.6-5.8
	c0.5,1.5,1.3,2.8,2.3,4c1,1.199,2.3,2.199,3.8,2.9c1.5,0.699,3.101,1,4.8,1c0.801,0,1.601-0.101,2.4-0.301
	c0.8-0.199,1.6-0.5,2.3-0.9c1.5-0.799,2.601-2.199,3.4-3.6c0.8-1.5,1.2-3,1.399-4.6c0.2-1.6,0.301-3.1,0.2-4.7
	C123.505,47.384,123.306,45.784,122.905,44.284"/>
<path fill="#17244C" d="M70.405,5.585c9.72,0,17.6,7.879,17.6,17.6c0,9.72-7.88,17.6-17.6,17.6c-9.721,0-17.6-7.88-17.6-17.6
	C52.806,13.464,60.685,5.585,70.405,5.585"/>
<path fill="#985B25" d="M70.405,5.884c9.002,0,16.3,7.299,16.3,16.301s-7.298,16.3-16.3,16.3s-16.3-7.298-16.3-16.3
	S61.403,5.884,70.405,5.884"/>
<path fill="#F79521" d="M70.405,7.185c7.953,0,14.4,6.447,14.4,14.4c0,7.952-6.447,14.399-14.4,14.399s-14.4-6.447-14.4-14.399
	C56.005,13.632,62.452,7.185,70.405,7.185"/>
<path fill="#ED2826" d="M105.879,32.923c1.424-0.443,2.99,0.523,3.499,2.156c0.509,1.636-0.233,3.32-1.656,3.764
	c-1.424,0.443-2.991-0.523-3.5-2.158C103.714,35.051,104.455,33.366,105.879,32.923"/>
<path fill="#25BEC5" d="M107.982,45.927c1.424-0.443,2.989,0.523,3.499,2.157c0.509,1.636-0.233,3.32-1.656,3.763
	c-1.424,0.443-2.991-0.522-3.5-2.158C105.817,48.056,106.558,46.37,107.982,45.927"/>
<path fill="#FBAA19" d="M112.58,38.722c1.424-0.442,2.99,0.523,3.499,2.157c0.509,1.636-0.233,3.32-1.656,3.763
	c-1.424,0.443-2.991-0.522-3.5-2.158C110.415,40.851,111.156,39.165,112.58,38.722"/>
<path fill="#72BF44" d="M100.732,38.907c1.48-0.18,2.848,1.055,3.053,2.754c0.204,1.699-0.829,3.223-2.311,3.4
	c-1.479,0.18-2.847-1.054-3.052-2.754C98.219,40.608,99.253,39.085,100.732,38.907"/>
<path fill="#F3787A" d="M105.505,33.784c1.4-0.4,3,0.5,3.5,2.1c0.2,0.701,0.2,1.4,0,2c0.601-0.699,0.7-1.799,0.4-2.799
	c-0.5-1.601-2.1-2.601-3.5-2.101c-0.8,0.2-1.4,0.899-1.6,1.7C104.605,34.284,105.005,33.984,105.505,33.784"/>
<path fill="#96D7DF" d="M111.505,48.085c-0.5-1.601-2.1-2.601-3.5-2.101c-0.899,0.3-1.5,1.101-1.699,2
	c0.3-0.5,0.8-0.899,1.399-1.101c1.4-0.399,3,0.5,3.5,2.101c0.2,0.601,0.2,1.101,0.101,1.7
	C111.605,49.884,111.705,48.984,111.505,48.085"/>
<path fill="#FCD18B" d="M112.405,39.685c1.4-0.4,3,0.5,3.5,2.1c0.1,0.4,0.2,0.801,0.2,1.1c0.2-0.6,0.2-1.299,0-2
	c-0.5-1.6-2.101-2.6-3.5-2.1c-1.101,0.301-1.8,1.4-1.8,2.6C111.105,40.585,111.605,39.884,112.405,39.685"/>
<path fill="#B4D88B" d="M103.806,41.585c-0.2-1.701-1.601-2.9-3-2.701c-1.5,0.201-2.5,1.701-2.301,3.4c0.2-1.3,1.101-2.4,2.301-2.5
	c1.5-0.199,2.8,1,3,2.7V41.585z"/>
<path fill="#0A6CAA" d="M39.505,39.384h-4.399l0.5-5.399c0.1-0.601-0.4-1.101-1-1.101h-2.8c-0.5,0-1,0.4-1,0.9l-0.5,5.6h-4.7
	c-0.5,0-0.9,0.4-1,0.9l-0.4,2.7c-0.1,0.601,0.4,1.101,1,1.101h4.7l-0.5,5.299c-0.1,0.601,0.4,1.101,1,1.101h2.8
	c0.5,0,1-0.399,1-0.899l0.5-5.5h4.5c0.5,0,0.9-0.4,1-0.9l0.3-2.7C40.605,39.884,40.105,39.384,39.505,39.384"/>
<path fill="#48AEE0" d="M30.806,39.185L30.806,39.185c-0.2,0-0.301-0.1-0.301-0.301l0.4-4.899c0-0.5,0.5-0.899,1.1-0.899h2.101
	c0.2,0,0.3,0.1,0.3,0.299c0,0.201-0.1,0.201-0.3,0.201h-2.101c-0.3,0-0.5,0.199-0.5,0.5l-0.399,4.899
	C31.105,39.085,31.005,39.185,30.806,39.185"/>
<path fill="#48AEE0" d="M39.505,40.284h-4.3c-0.1,0-0.3-0.1-0.3-0.3c0-0.101,0.1-0.3,0.3-0.3h4.3c0.101,0,0.301,0.1,0.301,0.3
	C39.705,40.185,39.605,40.284,39.505,40.284"/>
<path fill="#48AEE0" d="M29.605,40.284h-4.4c-0.1,0-0.3-0.1-0.3-0.3c0-0.101,0.1-0.3,0.3-0.3h4.3c0.101,0,0.301,0.1,0.301,0.3
	S29.705,40.284,29.605,40.284"/>
<path fill="#FFFFFF" d="M75.806,23.085c-0.101,0-0.101-0.101,0.1-0.201c1,0.101,3-0.1,3.9-2.399c0.8-2-0.2-4.3-2.2-5.101l-0.7-0.299
	l1.3-3l-1.899-0.801l-1.301,3.2l-2.199-0.899l1.3-3.201l-1.9-0.799l-1.3,3.199l-4.8-1.9l-0.9,2.301l1.8,0.699
	c0.301,0.101,0.4,0.4,0.301,0.701l-4,9.899c-0.101,0.3-0.4,0.399-0.7,0.3l-1.8-0.699l-0.9,2.299l4.8,1.9l-1.2,3l1.9,0.801l1.2-3
	l2.2,0.899l-1.2,3l1.899,0.8l1.2-3l1.2,0.5c2.3,0.9,4.8-0.199,5.8-2.5C78.705,26.585,77.705,24.185,75.806,23.085 M74.005,16.585
	c1.101,0.399,1.5,1.6,1.101,2.6v0.1c-0.4,1.1-1.601,1.5-2.601,1.1l-2-0.799l1.5-3.801L74.005,16.585z M72.806,26.185
	c-0.5,1.199-2,1.9-3.2,1.4l-2-0.801l2-5l2,0.801c1.2,0.5,1.899,2,1.399,3.199L72.806,26.185z"/>
<path fill="#121F3F" d="M2478.918,1261.771h-398.53c-10.77,0-19.5-8.729-19.5-19.5c0-10.77,8.73-19.5,19.5-19.5h398.53
	c10.77,0,19.5,8.73,19.5,19.5C2498.418,1253.042,2489.688,1261.771,2478.918,1261.771"/>
<path fill="none" stroke="#3E5887" stroke-miterlimit="10" d="M2478.918,1261.771h-398.53c-10.77,0-19.5-8.729-19.5-19.5
	c0-10.77,8.73-19.5,19.5-19.5h398.53c10.77,0,19.5,8.73,19.5,19.5C2498.418,1253.042,2489.688,1261.771,2478.918,1261.771z"/>
<text transform="matrix(1 0 0 1 2081.1328 1246.3623)"><tspan x="0" y="0" fill="#314A77" font-family="'Roboto-Regular'" font-size="14">USER</tspan><tspan x="33.961" y="0" fill="#314A77" font-family="'Roboto-Regular'" font-size="14">N</tspan><tspan x="44.053" y="0" fill="#314A77" font-family="'Roboto-Regular'" font-size="14">AME</tspan></text>
<path fill="#121F3F" d="M2478.918,1342.242h-398.53c-10.77,0-19.5-8.73-19.5-19.5c0-10.771,8.73-19.5,19.5-19.5h398.53
	c10.77,0,19.5,8.729,19.5,19.5C2498.418,1333.512,2489.688,1342.242,2478.918,1342.242"/>
<path fill="none" stroke="#3E5887" stroke-miterlimit="10" d="M2478.918,1342.242h-398.53c-10.77,0-19.5-8.73-19.5-19.5
	c0-10.771,8.73-19.5,19.5-19.5h398.53c10.77,0,19.5,8.729,19.5,19.5C2498.418,1333.512,2489.688,1342.242,2478.918,1342.242z"/>
<text transform="matrix(1 0 0 1 2081.1328 1326.833)"><tspan x="0" y="0" fill="#314A77" font-family="'Roboto-Regular'" font-size="14">USER</tspan><tspan x="33.961" y="0" fill="#314A77" font-family="'Roboto-Regular'" font-size="14">N</tspan><tspan x="44.053" y="0" fill="#314A77" font-family="'Roboto-Regular'" font-size="14">AME</tspan></text>
<rect x="-796" y="362.5" fill="none" width="1920" height="1080"/>
</svg>
