<?xml version="1.0" encoding="utf-8"?>
<!-- Generator: Adobe Illustrator 16.0.0, SVG Export Plug-In . SVG Version: 6.00 Build 0)  -->
<!DOCTYPE svg PUBLIC "-//W3C//DTD SVG 1.1//EN" "http://www.w3.org/Graphics/SVG/1.1/DTD/svg11.dtd">
<svg version="1.1" id="Capa_1" xmlns="http://www.w3.org/2000/svg" xmlns:xlink="http://www.w3.org/1999/xlink" x="0px" y="0px"
	 width="244px" height="52.333px" viewBox="0 0 244 52.333" enable-background="new 0 0 244 52.333" xml:space="preserve">
<path fill="#17244C" d="M83.188,38.127c0.293-10.505-9.978-23.065-10.446-23.593c-3.228-3.932-7.806-3.756-8.51-3.756h-8.804
	c-0.88-5.341-5.575-9.39-11.093-9.39c-5.517,0-10.152,4.049-11.032,9.39h-8.862c-0.646-0.059-5.281-0.176-8.51,3.756
	c-0.471,0.528-10.74,13.088-10.447,23.534v0.763c0,1.526,0.176,2.993,0.528,4.343c1.409,4.637,6.221,7.806,11.797,7.806h0.293
	c5.576-0.118,12.383-3.463,15.201-12.618h0.704c1.467,0,2.641-1.174,2.699-2.641l0.177-1.644h0.409l1.115,2.876
	c0.295,0.822,1.116,1.35,1.996,1.35h2.7c0.821,0,1.524-0.645,1.644-1.467l0.059-0.47l0.117,0.352
	c0.293,0.822,1.056,1.409,1.937,1.409h2.582c0.939,0,1.702-0.646,1.878-1.526l0.059-0.411c0.234,1.291,1.408,2.289,2.759,2.23h1.174
	c2.817,9.097,9.625,12.501,15.2,12.56h0.294c5.575,0,10.446-3.228,11.796-7.864c0.411-1.35,0.587-2.759,0.527-4.226
	C83.188,38.596,83.188,38.303,83.188,38.127"/>
<path fill="#231F1C" d="M71.451,17.058c-2.935-3.521-7.16-3.169-7.16-3.169H24.383c0,0-4.284-0.352-7.16,3.169
	S4.897,33.55,7.598,42.646c2.7,9.096,20.307,10.505,24.473-5.928h1.938c0.587,0,1.115-0.47,1.115-1.115l0.234-2.759
	c0-0.234,0.234-0.41,0.469-0.41h2.23c0.234,0,0.411,0.117,0.529,0.352l1.173,3.052c0.176,0.469,0.646,0.763,1.174,0.763h1.526
	c0.41,0,0.703-0.294,0.763-0.705l0.704-6.632c0-0.117,0.176-0.117,0.176,0l2.23,6.398c0.177,0.469,0.646,0.821,1.115,0.821h1.408
	c0.528,0,0.939-0.352,1.057-0.821l1.644-8.276c0-0.117,0.176-0.117,0.176,0l1.291,8.452c0.06,0.528,0.528,0.997,1.115,0.939
	l2.465-0.059c4.167,16.374,21.774,15.024,24.474,5.928C83.775,33.55,74.386,20.579,71.451,17.058 M35.475,28.795l0.646-4.519
	l1.525,4.519H35.475z M53.961,17.292h-3.463L47.74,29.265l-3.873-11.972h-1.35L40.58,27.739l-3.756-10.447h-2.054l-1.819,8.921
	l0.881-10.036H54.9l0.881,10.036L53.961,17.292z"/>
<path fill="#7C7D7D" d="M71.451,16.471c-2.935-3.521-7.16-3.169-7.16-3.169H24.383c0,0-4.284-0.352-7.16,3.169
	S4.897,32.904,7.598,42.06c2.7,9.155,20.307,10.505,24.473-5.928h1.938c0.587,0,1.115-0.47,1.115-1.115l0.234-2.759
	c0-0.234,0.234-0.41,0.469-0.41h2.23c0.234,0,0.411,0.117,0.529,0.352l1.173,3.052c0.176,0.469,0.646,0.763,1.174,0.763h1.526
	c0.41,0,0.703-0.294,0.763-0.705l0.704-6.631c0-0.118,0.176-0.118,0.176,0l2.23,6.397c0.177,0.469,0.646,0.821,1.115,0.821h1.408
	c0.528,0,0.939-0.352,1.057-0.821l1.644-8.276c0-0.117,0.176-0.117,0.176,0l1.291,8.452c0.06,0.528,0.528,0.997,1.115,0.939
	l2.465-0.059c4.167,16.374,21.774,15.024,24.474,5.928C83.775,32.904,74.386,19.992,71.451,16.471 M35.475,28.208l0.646-4.519
	l1.525,4.519H35.475z M53.961,16.706h-3.463L47.74,28.679l-3.873-11.973h-1.35L40.58,27.152l-3.756-10.447h-2.054l-1.819,8.921
	l0.881-10.036H54.9l0.881,10.036L53.961,16.706z"/>
<path fill="#F7F7F7" d="M71.451,15.591c-2.935-3.521-7.16-3.169-7.16-3.169H24.383c0,0-4.284-0.352-7.16,3.169
	c-2.876,3.521-12.325,16.433-9.625,25.588c2.7,9.156,20.307,10.506,24.473-5.927h1.938c0.587,0,1.115-0.47,1.115-1.115l0.234-2.759
	c0-0.235,0.234-0.411,0.469-0.411h2.23c0.234,0,0.411,0.118,0.529,0.353l1.173,3.051c0.176,0.47,0.646,0.763,1.174,0.763h1.526
	c0.41,0,0.703-0.293,0.763-0.704l0.704-6.632c0-0.117,0.176-0.117,0.176,0l2.23,6.397c0.177,0.47,0.646,0.822,1.115,0.822h1.408
	c0.528,0,0.939-0.352,1.057-0.822l1.644-8.275c0-0.117,0.176-0.117,0.176,0l1.291,8.393c0.06,0.528,0.528,0.997,1.115,0.939
	l2.465-0.059c4.167,16.374,21.774,15.024,24.474,5.928C83.775,32.023,74.386,19.111,71.451,15.591 M35.475,27.329l0.646-4.519
	l1.525,4.519H35.475z M53.961,15.767h-3.463L47.74,27.739l-3.873-11.973h-1.35L40.58,26.213l-3.756-10.447h-2.054l-1.819,8.921
	l0.881-10.036H54.9l0.881,10.036L53.961,15.767z"/>
<path fill="#17244C" d="M27.316,22.457c-0.234-0.235-0.527-0.411-0.879-0.411H24.5l0.234-2.523c0-0.353-0.059-0.646-0.293-0.881
	c-0.235-0.235-0.528-0.411-0.881-0.411h-1.643c-0.646,0-1.115,0.47-1.174,1.116l-0.235,2.758h-2.229
	c-0.588,0-1.115,0.469-1.174,1.056l-0.177,1.585c-0.059,0.352,0.06,0.704,0.294,0.939s0.528,0.411,0.881,0.411h2.053l-0.234,2.465
	c0,0.352,0.059,0.645,0.294,0.88c0.233,0.235,0.528,0.411,0.88,0.411h1.643c0.646,0,1.115-0.47,1.175-1.115l0.235-2.641h2.112
	c0.586,0,1.115-0.47,1.173-1.057l0.176-1.584C27.609,23.044,27.492,22.692,27.316,22.457"/>
<path fill="#17244C" d="M66.404,22.75c1.114-0.352,1.76-1.702,1.35-2.993c-0.176-0.587-0.588-1.115-1.057-1.467
	c-0.529-0.352-1.115-0.411-1.703-0.235c-1.114,0.352-1.76,1.702-1.349,2.993c0.177,0.587,0.586,1.115,1.056,1.467
	c0.353,0.235,0.705,0.352,1.115,0.352C66.052,22.81,66.228,22.81,66.404,22.75"/>
<path fill="#17244C" d="M67.93,26.096L67.93,26.096c-0.528-0.352-1.115-0.411-1.702-0.235c-1.114,0.352-1.761,1.702-1.351,2.993
	c0.177,0.587,0.588,1.116,1.058,1.468c0.353,0.234,0.704,0.352,1.115,0.352c0.176,0,0.409-0.059,0.587-0.118
	c1.115-0.352,1.76-1.702,1.349-2.993C68.81,26.918,68.457,26.389,67.93,26.096"/>
<path fill="#17244C" d="M71.686,23.22c-0.176-0.587-0.587-1.115-1.057-1.467c-0.528-0.352-1.114-0.411-1.701-0.235
	c-1.115,0.352-1.762,1.702-1.35,2.993c0.176,0.587,0.586,1.115,1.056,1.467c0.352,0.235,0.704,0.352,1.114,0.352
	c0.177,0,0.412-0.058,0.588-0.117C71.51,25.861,72.097,24.511,71.686,23.22"/>
<path fill="#17244C" d="M63.586,22.046c-0.469-0.352-0.998-0.528-1.525-0.411c-0.587,0.059-1.115,0.411-1.467,0.939
	c-0.352,0.528-0.471,1.115-0.411,1.761c0.117,1.232,1.115,2.171,2.229,2.171h0.235c1.175-0.176,2.054-1.35,1.878-2.699
	C64.467,23.044,64.115,22.457,63.586,22.046"/>
<path fill="#162249" d="M12.176,25.45c-0.117,1.995-0.117,3.991,0.176,5.986c0.176,0.938,0.41,1.937,0.822,2.759
	c0.41,0.88,0.996,1.643,1.76,2.112c0.763,0.47,1.701,0.705,2.641,0.705s1.82-0.294,2.641-0.763c0.822-0.528,1.526-1.174,2.113-1.996
	c0.587-0.763,1.115-1.643,1.585-2.523c-0.235,0.997-0.704,1.936-1.233,2.817c-0.527,0.88-1.231,1.702-2.111,2.289
	c-0.881,0.645-1.938,0.997-2.994,1.056c-0.527,0-1.057-0.059-1.584-0.176c-0.527-0.117-1.057-0.352-1.525-0.646
	c-0.939-0.587-1.586-1.526-1.996-2.523c-0.41-0.998-0.646-1.996-0.705-3.052c-0.117-0.998-0.058-2.054,0-3.052
	C11.764,27.445,11.94,26.448,12.176,25.45"/>
<path d="M11.999,26.858c0,0.88,0,1.761,0.06,2.642c0.058,0.88,0.233,1.761,0.469,2.582c0.47,1.644,1.467,3.111,2.992,3.756
	c0.353,0.177,0.764,0.294,1.174,0.353c0.412,0.058,0.822,0.117,1.234,0.058c0.82,0,1.643-0.293,2.346-0.645
	c0.764-0.411,1.41-0.998,1.996-1.644s1.057-1.408,1.468-2.171c-0.235,0.88-0.646,1.702-1.175,2.465
	c-0.527,0.763-1.174,1.467-1.937,1.937c-0.763,0.528-1.702,0.821-2.698,0.939c-0.471,0.058-0.939,0-1.41-0.059
	c-0.469-0.059-0.938-0.176-1.408-0.352c-0.881-0.352-1.701-0.998-2.23-1.82c-0.527-0.763-0.88-1.701-1.115-2.582
	c-0.176-0.88-0.234-1.819-0.234-2.7C11.706,28.62,11.764,27.681,11.999,26.858"/>
<path fill="#7C7D7D" d="M12.234,25.274c-0.06,1.819,0,3.58,0.352,5.341c0.176,0.821,0.47,1.702,0.88,2.406
	c0.411,0.704,0.998,1.35,1.702,1.761c0.354,0.176,0.705,0.352,1.115,0.469c0.41,0.117,0.822,0.176,1.232,0.176
	c0.822,0.059,1.702-0.059,2.465-0.352c1.586-0.587,2.935-1.878,3.873-3.404c-0.293,0.88-0.763,1.643-1.349,2.348
	c-0.587,0.704-1.351,1.291-2.231,1.702c-0.879,0.411-1.818,0.587-2.816,0.587c-0.469,0-0.939-0.059-1.408-0.176
	c-0.47-0.118-0.939-0.294-1.35-0.529c-0.881-0.469-1.526-1.291-1.995-2.113c-0.47-0.88-0.705-1.76-0.822-2.699
	c-0.118-0.939-0.176-1.819-0.118-2.759C11.882,27.093,11.999,26.154,12.234,25.274"/>
<path fill="#162249" d="M75.207,25.45c0.117,1.995,0.117,3.991-0.176,5.986c-0.176,0.938-0.411,1.937-0.822,2.759
	c-0.411,0.88-0.997,1.643-1.76,2.112c-0.764,0.47-1.702,0.705-2.641,0.705c-0.939,0-1.82-0.294-2.642-0.763
	c-0.822-0.528-1.526-1.174-2.112-1.996c-0.588-0.763-1.115-1.643-1.586-2.523c0.235,0.997,0.704,1.936,1.233,2.817
	c0.528,0.88,1.231,1.702,2.112,2.289c0.881,0.645,1.937,0.997,2.994,1.056c0.527,0,1.055-0.059,1.584-0.176
	c0.527-0.117,1.057-0.352,1.525-0.646c0.939-0.587,1.585-1.526,1.996-2.523c0.41-0.998,0.645-1.996,0.704-3.052
	c0.116-0.998,0.059-2.054,0-3.052C75.618,27.445,75.441,26.448,75.207,25.45"/>
<path d="M75.383,26.858c0,0.88,0,1.761-0.059,2.642c-0.059,0.88-0.234,1.761-0.469,2.582c-0.471,1.644-1.467,3.111-2.994,3.756
	c-0.352,0.177-0.762,0.294-1.174,0.353c-0.41,0.058-0.821,0.117-1.232,0.058c-0.821,0-1.643-0.293-2.348-0.645
	c-0.763-0.411-1.408-0.998-1.996-1.644c-0.586-0.646-1.055-1.408-1.467-2.171c0.235,0.88,0.646,1.702,1.174,2.465
	c0.529,0.763,1.175,1.467,1.938,1.937c0.764,0.528,1.702,0.821,2.699,0.939c0.47,0.058,0.939,0,1.408-0.059
	c0.47-0.059,0.939-0.176,1.408-0.352c0.881-0.352,1.703-0.998,2.231-1.82c0.528-0.763,0.88-1.701,1.115-2.582
	c0.176-0.88,0.235-1.819,0.235-2.7C75.676,28.62,75.559,27.681,75.383,26.858"/>
<path fill="#7C7D7D" d="M75.148,25.274c0.059,1.819,0,3.58-0.352,5.341c-0.177,0.821-0.471,1.702-0.881,2.406
	c-0.41,0.704-0.998,1.35-1.701,1.761c-0.354,0.176-0.705,0.352-1.117,0.469c-0.409,0.117-0.82,0.176-1.231,0.176
	c-0.821,0.059-1.702-0.059-2.465-0.352c-1.585-0.587-2.935-1.878-3.873-3.404c0.293,0.88,0.763,1.643,1.349,2.348
	c0.588,0.704,1.35,1.291,2.231,1.702c0.88,0.411,1.819,0.587,2.817,0.587c0.469,0,0.938-0.059,1.408-0.176
	c0.469-0.118,0.938-0.294,1.35-0.529c0.88-0.469,1.525-1.291,1.994-2.113c0.471-0.88,0.705-1.76,0.822-2.699
	c0.118-0.939,0.176-1.819,0.118-2.759C75.5,27.093,75.383,26.154,75.148,25.274"/>
<path fill="#17244C" d="M44.336,2.562c5.705,0,10.33,4.625,10.33,10.329c0,5.705-4.625,10.329-10.33,10.329
	c-5.704,0-10.328-4.624-10.328-10.329C34.008,7.187,38.632,2.562,44.336,2.562"/>
<path fill="#985B25" d="M44.336,2.737c5.283,0,9.566,4.283,9.566,9.566c0,5.284-4.283,9.567-9.566,9.567
	c-5.282,0-9.565-4.283-9.565-9.567C34.771,7.021,39.054,2.737,44.336,2.737"/>
<path fill="#F79521" d="M44.336,3.5c4.668,0,8.451,3.784,8.451,8.451c0,4.668-3.783,8.451-8.451,8.451
	c-4.666,0-8.45-3.783-8.45-8.451C35.886,7.285,39.67,3.5,44.336,3.5"/>
<path fill="#ED2826" d="M65.156,18.606c0.836-0.26,1.754,0.307,2.053,1.266c0.299,0.96-0.137,1.948-0.973,2.208
	c-0.834,0.26-1.755-0.307-2.053-1.266C63.885,19.855,64.32,18.866,65.156,18.606"/>
<path fill="#25BEC5" d="M66.391,26.238c0.836-0.26,1.754,0.307,2.053,1.266c0.299,0.96-0.137,1.948-0.973,2.208
	c-0.835,0.26-1.755-0.307-2.053-1.266C65.119,27.487,65.554,26.498,66.391,26.238"/>
<path fill="#FBAA19" d="M69.088,22.01c0.836-0.26,1.756,0.307,2.055,1.266c0.298,0.96-0.137,1.948-0.973,2.208
	c-0.836,0.26-1.756-0.307-2.054-1.266C67.817,23.259,68.252,22.27,69.088,22.01"/>
<path fill="#72BF44" d="M62.136,22.118c0.868-0.105,1.671,0.619,1.79,1.617c0.121,0.997-0.486,1.891-1.354,1.996
	c-0.868,0.104-1.671-0.619-1.791-1.617S61.267,22.223,62.136,22.118"/>
<path fill="#F3787A" d="M64.937,19.112c0.821-0.235,1.761,0.293,2.054,1.232c0.117,0.411,0.117,0.822,0,1.174
	c0.352-0.411,0.411-1.056,0.235-1.643c-0.294-0.939-1.233-1.526-2.054-1.233c-0.471,0.118-0.822,0.529-0.939,0.998
	C64.408,19.405,64.644,19.229,64.937,19.112"/>
<path fill="#96D7DF" d="M68.458,27.504c-0.294-0.939-1.232-1.526-2.054-1.232c-0.528,0.176-0.881,0.645-0.998,1.173
	c0.176-0.293,0.47-0.528,0.821-0.645c0.821-0.235,1.761,0.293,2.054,1.232c0.117,0.352,0.117,0.646,0.06,0.998
	C68.517,28.561,68.574,28.032,68.458,27.504"/>
<path fill="#FCD18B" d="M68.986,22.574c0.822-0.235,1.761,0.293,2.054,1.232c0.06,0.235,0.117,0.47,0.117,0.646
	c0.118-0.352,0.118-0.763,0-1.174c-0.294-0.939-1.232-1.526-2.054-1.232c-0.646,0.176-1.057,0.821-1.057,1.526
	C68.223,23.103,68.516,22.691,68.986,22.574"/>
<path fill="#B4D88B" d="M63.938,23.689c-0.116-0.998-0.938-1.702-1.761-1.585c-0.88,0.118-1.467,0.998-1.35,1.996
	c0.117-0.763,0.646-1.409,1.35-1.467c0.881-0.118,1.645,0.587,1.761,1.584V23.689z"/>
<path fill="#0A6CAA" d="M26.201,22.398h-2.582l0.293-3.169c0.06-0.352-0.234-0.646-0.586-0.646h-1.644
	c-0.293,0-0.587,0.235-0.587,0.529l-0.293,3.286h-2.759c-0.293,0-0.528,0.235-0.587,0.528l-0.234,1.585
	c-0.059,0.352,0.234,0.645,0.587,0.645h2.759l-0.295,3.111c-0.058,0.352,0.235,0.646,0.588,0.646h1.644
	c0.293,0,0.586-0.235,0.586-0.529l0.294-3.228h2.641c0.293,0,0.528-0.234,0.588-0.528l0.176-1.584
	C26.848,22.691,26.554,22.398,26.201,22.398"/>
<path fill="#48AEE0" d="M21.096,22.281L21.096,22.281c-0.117,0-0.176-0.059-0.176-0.176l0.234-2.876
	c0-0.293,0.293-0.528,0.646-0.528h1.233c0.117,0,0.176,0.059,0.176,0.176s-0.059,0.117-0.176,0.117H21.8
	c-0.176,0-0.293,0.118-0.293,0.294l-0.235,2.876C21.271,22.222,21.213,22.281,21.096,22.281"/>
<path fill="#48AEE0" d="M26.201,22.927h-2.523c-0.059,0-0.176-0.059-0.176-0.176c0-0.059,0.059-0.176,0.176-0.176h2.523
	c0.06,0,0.177,0.059,0.177,0.176C26.318,22.868,26.261,22.927,26.201,22.927"/>
<path fill="#48AEE0" d="M20.392,22.927H17.81c-0.06,0-0.176-0.059-0.176-0.176c0-0.059,0.058-0.176,0.176-0.176h2.522
	c0.06,0,0.177,0.059,0.177,0.176C20.509,22.868,20.451,22.927,20.392,22.927"/>
<path fill="#FFFFFF" d="M47.506,12.833c-0.059,0-0.059-0.059,0.059-0.118c0.587,0.059,1.761-0.058,2.289-1.408
	c0.47-1.174-0.117-2.524-1.291-2.993l-0.411-0.176l0.763-1.761l-1.115-0.47l-0.763,1.878l-1.291-0.528l0.763-1.878l-1.115-0.469
	l-0.762,1.878l-2.818-1.115l-0.527,1.349l1.057,0.411c0.176,0.059,0.234,0.235,0.176,0.411l-2.348,5.81
	c-0.059,0.176-0.234,0.235-0.41,0.176l-1.058-0.41l-0.528,1.349l2.817,1.116l-0.704,1.76l1.115,0.47l0.704-1.761l1.29,0.528
	l-0.703,1.761l1.115,0.469l0.705-1.76l0.703,0.293c1.351,0.528,2.817-0.117,3.404-1.467C49.208,14.887,48.621,13.478,47.506,12.833
	 M46.449,9.018c0.646,0.235,0.881,0.939,0.646,1.526v0.059c-0.235,0.645-0.939,0.88-1.526,0.645l-1.175-0.469l0.881-2.231
	L46.449,9.018z M45.745,14.651c-0.293,0.704-1.174,1.115-1.878,0.822l-1.174-0.47l1.174-2.934l1.174,0.469
	c0.704,0.294,1.115,1.174,0.821,1.878L45.745,14.651z"/>
<path fill="#FFFFFF" d="M91.347,21.576c0-1.35,1.056-2.406,2.405-2.406h4.168c0.822,0,1.584,0.118,2.289,0.294
	c0.703,0.176,1.291,0.469,1.818,0.88c0.471,0.352,0.881,0.822,1.174,1.408c0.293,0.587,0.412,1.233,0.412,1.996
	c0,0.528-0.06,0.998-0.177,1.35c-0.118,0.352-0.294,0.704-0.411,0.938c-0.176,0.293-0.41,0.528-0.646,0.763
	c0.353,0.234,0.705,0.528,0.998,0.88c0.236,0.293,0.471,0.704,0.705,1.232c0.234,0.469,0.293,1.056,0.293,1.819
	c0,0.822-0.117,1.526-0.41,2.171c-0.295,0.646-0.704,1.233-1.233,1.702c-0.528,0.47-1.173,0.822-1.937,1.057
	c-0.762,0.234-1.644,0.353-2.582,0.353h-4.461c-1.35,0-2.405-1.057-2.405-2.406V21.576z M98.389,24.276
	c0-0.763-0.41-1.174-1.232-1.174h-0.587v2.348h0.587C97.979,25.45,98.389,25.04,98.389,24.276 M97.156,32.023
	c1.291,0,1.938-0.469,1.938-1.467c0-0.998-0.646-1.467-1.938-1.467h-0.587v2.934H97.156z"/>
<path fill="#FFFFFF" d="M107.428,19.17h2.875c0.764,0,1.408,0.646,1.408,1.409v14.026c0,0.763-0.645,1.409-1.408,1.409h-2.875
	c-0.764,0-1.41-0.646-1.41-1.409V20.58C106.018,19.816,106.605,19.17,107.428,19.17"/>
<path fill="#FFFFFF" d="M116.172,23.631h-2.113c-0.527,0-0.939-0.411-0.939-0.939v-2.465c0-0.528,0.412-0.939,0.939-0.939h9.801
	c0.528,0,0.939,0.411,0.939,0.939v2.465c0,0.528-0.411,0.939-0.939,0.939h-2.113v11.444c0,0.529-0.409,0.938-0.938,0.938h-3.638
	c-0.528,0-0.939-0.411-0.939-0.938L116.172,23.631z"/>
<path fill="#FFFFFF" d="M136.947,23.337c-0.352,0.528-1.056,0.763-1.643,0.528c-0.059,0-0.118-0.059-0.235-0.059
	c-0.47-0.117-0.88-0.234-1.35-0.234s-0.938,0.117-1.351,0.293c-0.41,0.176-0.763,0.411-1.056,0.704
	c-0.294,0.294-0.528,0.705-0.704,1.116c-0.176,0.41-0.234,0.88-0.234,1.408c0,0.528,0.117,0.998,0.293,1.409
	c0.176,0.41,0.41,0.821,0.763,1.115c0.294,0.293,0.705,0.528,1.114,0.704c0.412,0.176,0.882,0.293,1.351,0.293
	c0.587,0,1.115-0.117,1.585-0.352c0.469-0.234,0.88-0.587,1.232-0.998h-0.469c-0.588,0-0.998-0.469-0.998-0.997V26.8
	c0-0.587,0.47-0.998,0.998-0.998h4.459c0.588,0,0.998,0.469,0.998,0.998v3.462c0,0.822-0.293,1.643-0.822,2.289
	c-0.176,0.235-0.41,0.47-0.586,0.704c-0.528,0.587-1.115,1.057-1.819,1.468c-0.646,0.41-1.409,0.704-2.172,0.939
	c-0.763,0.234-1.584,0.352-2.406,0.352c-1.231,0-2.347-0.235-3.403-0.704c-1.057-0.47-1.996-1.057-2.817-1.879
	c-0.821-0.762-1.408-1.702-1.878-2.817c-0.469-1.056-0.704-2.229-0.704-3.462c0-1.233,0.235-2.348,0.646-3.404
	c0.41-1.057,1.057-1.996,1.819-2.817c0.763-0.822,1.702-1.409,2.699-1.878c1.057-0.47,2.172-0.705,3.403-0.705
	c0.939,0,1.762,0.118,2.465,0.294c0.705,0.176,1.293,0.411,1.762,0.645c0.763,0.353,1.056,1.35,0.527,2.055L136.947,23.337z"/>
<path fill="#FFFFFF" d="M148.744,19.171h2.406c0.469,0,0.939,0.293,1.115,0.763l5.398,14.32c0.295,0.821-0.293,1.76-1.231,1.76
	h-2.465c-0.528,0-1.058-0.352-1.233-0.88l-0.234-0.646h-5.105l-0.294,0.705c-0.176,0.469-0.646,0.763-1.115,0.763h-2.758
	c-0.821,0-1.409-0.822-1.114-1.644l5.457-14.437C147.805,19.464,148.274,19.171,148.744,19.171 M151.092,30.791l-1.115-2.934
	l-1.115,2.934H151.092z"/>
<path fill="#FFFFFF" d="M160.658,19.229h2.229c0.47,0,0.938,0.235,1.175,0.646l3.99,5.81l3.932-5.81
	c0.293-0.411,0.705-0.646,1.174-0.646h2.23c0.764,0,1.408,0.646,1.408,1.409v13.967c0,0.763-0.645,1.409-1.408,1.409h-2.523
	c-0.764,0-1.408-0.646-1.408-1.409v-4.636l-2.23,3.345c-0.587,0.822-1.761,0.822-2.348,0l-2.289-3.345v4.636
	c0,0.763-0.645,1.409-1.408,1.409h-2.523c-0.764,0-1.409-0.646-1.409-1.409V20.638C159.249,19.875,159.895,19.229,160.658,19.229"/>
<path fill="#FFFFFF" d="M180.143,19.053h7.864c0.587,0,1.057,0.469,1.057,1.056v2.348c0,0.587-0.47,1.056-1.057,1.056h-3.521v1.878
	h3.464c0.586,0,1.055,0.47,1.055,1.057v2.113c0,0.586-0.469,1.056-1.055,1.056h-3.464v1.937h3.697c0.587,0,1.058,0.469,1.058,1.056
	v2.348c0,0.587-0.471,1.056-1.058,1.056h-8.04c-0.587,0-1.057-0.469-1.057-1.056V20.051
	C179.145,19.522,179.615,19.053,180.143,19.053"/>
<path fill="#FFFFFF" d="M204.322,25.509c0,1.174-0.176,2.171-0.588,2.993c-0.409,0.822-0.938,1.467-1.643,1.996
	c-0.703,0.528-1.525,0.88-2.465,1.115c-0.939,0.234-1.938,0.352-2.992,0.352v2.113c0,1.056-0.881,1.936-1.938,1.936h-1.526
	c-1.056,0-1.937-0.88-1.937-1.936V21.049c0-1.057,0.881-1.937,1.937-1.937h3.464c1.055,0,2.053,0.117,2.992,0.352
	s1.762,0.587,2.465,1.115c0.704,0.528,1.233,1.174,1.643,1.996C204.146,23.396,204.322,24.335,204.322,25.509 M196.635,27.387h0.234
	c0.704,0,1.232-0.176,1.525-0.469c0.293-0.353,0.47-0.763,0.47-1.35s-0.177-1.057-0.47-1.35c-0.293-0.352-0.821-0.47-1.525-0.47
	h-0.234V27.387z"/>
<path fill="#FFFFFF" d="M206.084,21.049c0-1.057,0.879-1.937,1.936-1.937h3.874c1.056,0,2.054,0.117,2.993,0.411
	c0.938,0.293,1.701,0.704,2.406,1.232c0.646,0.528,1.174,1.233,1.584,2.054c0.353,0.822,0.588,1.761,0.588,2.817
	c0,0.822-0.119,1.585-0.353,2.172c-0.235,0.587-0.47,1.056-0.763,1.467c-0.354,0.411-0.705,0.822-1.115,1.115l1.995,3.522
	c0.528,0.938-0.117,2.054-1.174,2.054h-3.169c-0.469,0-0.939-0.235-1.174-0.646l-2.113-3.58v2.758c0,0.822-0.645,1.526-1.526,1.526
	h-1.937c-1.057,0-1.937-0.88-1.937-1.936V21.049H206.084z M211.482,27.387h0.293c0.646,0,1.174-0.117,1.645-0.411
	c0.469-0.293,0.645-0.763,0.645-1.467c0-0.646-0.234-1.174-0.645-1.467c-0.471-0.294-0.998-0.411-1.645-0.411h-0.293V27.387z"/>
<path fill="#FFFFFF" d="M220.814,27.211c0-1.232,0.234-2.348,0.703-3.404c0.471-1.056,1.115-1.995,1.879-2.817
	c0.821-0.822,1.76-1.409,2.816-1.878c1.057-0.47,2.23-0.704,3.404-0.704c1.232,0,2.348,0.234,3.404,0.704
	c1.057,0.469,1.995,1.115,2.816,1.878c0.822,0.822,1.409,1.761,1.878,2.817c0.47,1.056,0.705,2.23,0.705,3.404
	c0,1.232-0.235,2.348-0.705,3.404c-0.469,1.056-1.115,1.995-1.878,2.817c-0.821,0.822-1.76,1.409-2.816,1.878
	c-1.057,0.47-2.23,0.704-3.404,0.704c-1.232,0-2.348-0.234-3.404-0.704c-1.057-0.469-1.995-1.115-2.816-1.878
	c-0.822-0.822-1.408-1.761-1.879-2.817C221.049,29.559,220.814,28.385,220.814,27.211 M226.096,27.211
	c0,0.469,0.117,0.939,0.293,1.35c0.176,0.411,0.411,0.822,0.764,1.115c0.293,0.293,0.705,0.587,1.115,0.763
	c0.41,0.176,0.881,0.293,1.35,0.293c0.47,0,0.938-0.117,1.35-0.293c0.411-0.176,0.822-0.411,1.115-0.763
	c0.294-0.293,0.587-0.704,0.763-1.115c0.177-0.411,0.294-0.881,0.294-1.35c0-0.469-0.117-0.939-0.294-1.35
	c-0.176-0.411-0.411-0.822-0.763-1.115c-0.293-0.293-0.704-0.587-1.115-0.763s-0.88-0.293-1.35-0.293
	c-0.469,0-0.939,0.117-1.35,0.293s-0.822,0.411-1.115,0.763c-0.293,0.293-0.588,0.704-0.764,1.115
	C226.213,26.213,226.096,26.683,226.096,27.211"/>
</svg>
